HIERARCHY
ROOT hip
{
	OFFSET 0.000000 0.000000 0.000000 
	CHANNELS 6 Xposition Yposition Zposition Xrotation Zrotation Yrotation
	JOINT abdomen
	{
		OFFSET 0.000000 3.402643 0.000000 
		CHANNELS 3 Xrotation Zrotation Yrotation
		JOINT chest
		{
			OFFSET 0.000000 8.438565 -0.680529 
			CHANNELS 3 Xrotation Zrotation Yrotation
			JOINT neck
			{
				OFFSET 0.000000 10.207942 -0.272212 
				CHANNELS 3 Xrotation Zrotation Yrotation
				JOINT head
				{
					OFFSET 0.000000 3.130431 0.000000 
					CHANNELS 3 Xrotation Zrotation Yrotation
					End Site
					{
						OFFSET 0.000000 3.130435 0.000000 
					}
				}
			}
			JOINT lCollar
			{
				OFFSET 3.470700 6.669187 -0.816635 
				CHANNELS 3 Yrotation Zrotation Xrotation
				JOINT lShldr
				{
					OFFSET 3.198488 0.000000 0.000000 
					CHANNELS 3 Zrotation Yrotation Xrotation
					JOINT lForeArm
					{
						OFFSET 10.139888 0.000000 0.000000 
						CHANNELS 3 Yrotation Zrotation Xrotation
						JOINT lHand
						{
							OFFSET 8.370511 0.000000 0.000000 
							CHANNELS 3 Zrotation Yrotation Xrotation
							End Site
							{
								OFFSET 4.083176 0.000000 0.000000 
							}
						}
					}
				}
			}
			JOINT rCollar
			{
				OFFSET -3.470700 6.669187 -0.816635 
				CHANNELS 3 Yrotation Zrotation Xrotation
				JOINT rShldr
				{
					OFFSET -3.198488 0.000000 0.000000 
					CHANNELS 3 Zrotation Yrotation Xrotation
					JOINT rForeArm
					{
						OFFSET -10.139888 0.000000 0.000000 
						CHANNELS 3 Yrotation Zrotation Xrotation
						JOINT rHand
						{
							OFFSET -8.370511 0.000000 0.000000 
							CHANNELS 3 Zrotation Yrotation Xrotation
							End Site
							{
								OFFSET -4.083176 0.000000 0.000000 
							}
						}
					}
				}
			}
		}
	}
	JOINT lThigh
	{
		OFFSET 5.308129 -1.633274 1.361059 
		CHANNELS 3 Xrotation Zrotation Yrotation
		JOINT lShin
		{
			OFFSET -2.041588 -20.007561 0.000000 
			CHANNELS 3 Xrotation Zrotation Yrotation
			JOINT lFoot
			{
				OFFSET 0.000000 -19.190928 -1.224953 
				CHANNELS 3 Xrotation Yrotation Zrotation
				End Site
				{
					OFFSET 0.000000 -2.449906 4.627600 
				}
			}
		}
	}
	JOINT rThigh
	{
		OFFSET -5.308129 -1.633274 1.361059 
		CHANNELS 3 Xrotation Zrotation Yrotation
		JOINT rShin
		{
			OFFSET 2.041588 -20.007561 0.000000 
			CHANNELS 3 Xrotation Zrotation Yrotation
			JOINT rFoot
			{
				OFFSET 0.000000 -19.190928 -1.224953 
				CHANNELS 3 Xrotation Yrotation Zrotation
				End Site
				{
					OFFSET 0.000000 -2.449906 4.627600 
				}
			}
		}
	}
}
MOTION
Frames: 14
Frame Time: 0.033333
56.423096 38.714695 10.461904 -173.529648 176.070038 7.701496 43.494816 7.911311 -11.536839 -20.839844 0.000000 0.000000 1.722212 -0.014536 6.706494 -2.520860 -1.255023 0.218345 -4.754609 -0.109182 -0.002653 -56.058250 12.924119 0.719988 -37.266342 -19.352358 7.944710 10.075653 28.724337 -21.035398 4.754609 0.109182 -0.002672 73.937546 -28.913061 -9.071004 71.628677 20.885241 11.058340 -12.259776 -45.013218 9.807828 -9.495630 5.494633 -1.840030 99.218002 5.154665 -0.824431 -4.499700 4.123668 -9.047998 -13.573623 -12.186507 -16.921297 62.961708 18.826260 7.067392 -28.239031 20.234858 -14.891098 
56.421570 38.714695 10.500501 -173.519928 176.079819 7.710831 43.515366 7.917543 -11.529287 -20.839844 0.000000 0.000000 1.702197 -0.022953 6.677272 -2.520860 -1.255023 0.218345 -4.754609 -0.109182 -0.002653 -56.065395 12.991772 0.729191 -37.267796 -19.384527 7.958958 10.051997 28.736338 -21.070583 4.754609 0.109182 -0.002672 74.008514 -28.993965 -9.133777 71.612289 20.841658 11.057425 -12.240204 -45.012264 9.821605 -9.532099 5.473758 -1.858486 99.246635 5.154633 -0.843064 -4.510712 4.114895 -9.051676 -13.601426 -12.213348 -16.928022 62.961716 18.826218 7.067372 -28.256458 20.248106 -14.914080 
56.417000 38.714191 10.615232 -173.481079 176.118927 7.767667 43.566982 7.926159 -11.503246 -20.839844 0.000000 0.000000 1.632381 -0.038449 6.590093 -2.520860 -1.255023 0.218345 -4.754609 -0.109182 -0.002653 -56.104244 13.212883 0.767721 -37.295399 -19.486553 7.978668 9.964152 28.751925 -21.188498 4.754609 0.109182 -0.002672 74.214394 -29.217131 -9.335331 71.521805 20.716063 11.102181 -12.200970 -45.008446 9.876716 -9.643280 5.417083 -1.863834 99.353096 5.173841 -0.857614 -4.576039 4.057079 -9.086152 -13.688259 -12.260442 -16.950686 62.950943 18.826200 7.074431 -28.329329 20.232199 -14.973415 
56.409897 38.713177 10.802068 -173.413010 176.177673 7.853474 43.650848 7.954654 -11.457148 -20.839844 0.000000 0.000000 1.512590 -0.060577 6.435301 -2.520860 -1.255023 0.218345 -4.754609 -0.109182 -0.002653 -56.168537 13.558872 0.816879 -37.349323 -19.658455 8.006939 9.832669 28.782024 -21.381098 4.754609 0.109182 -0.002672 74.551750 -29.572701 -9.667271 71.373772 20.483044 11.168353 -12.129923 -44.993057 9.959729 -9.805347 5.337199 -1.926617 99.507645 5.154356 -0.924908 -4.652166 3.969960 -9.143808 -13.847398 -12.372596 -16.977545 62.951252 18.826292 7.064838 -28.426844 20.237759 -15.036945 
56.399742 38.711147 11.058446 -173.325607 176.265640 7.976083 43.765808 7.985370 -11.392406 -20.839844 0.000000 0.000000 1.362658 -0.090235 6.232160 -2.520860 -1.255023 0.218345 -4.754609 -0.109182 -0.002653 -56.253635 14.039419 0.893627 -37.405380 -19.881310 8.057105 9.647387 28.826189 -21.643623 4.754609 0.109182 -0.002672 75.036026 -30.058323 -10.125286 71.156586 20.171270 11.262910 -12.034251 -44.955471 10.077866 -10.031767 5.211307 -1.975881 99.729866 5.154084 -0.997807 -4.765517 3.859186 -9.233340 -14.048861 -12.493621 -17.028843 62.932686 18.816744 7.034595 -28.564995 20.255629 -15.140598 
56.387047 38.707592 11.381841 6.791082 3.636485 -171.871582 43.901375 8.022051 -11.319870 -20.839844 0.000000 0.000000 1.162866 -0.126991 5.971436 -2.520860 -1.255023 0.218345 -4.754609 -0.109182 -0.002653 -56.352547 14.655223 0.981607 -37.476830 -20.159298 8.115731 9.401780 28.867863 -21.962254 4.754609 0.109182 -0.002672 75.663223 -30.643848 -10.706009 70.863823 19.747690 11.385996 -11.916044 -44.904179 10.251448 -10.335048 5.055422 -2.041233 100.029930 5.174177 -1.065359 -4.925951 3.701089 -9.310615 -14.302534 -12.659334 -17.075676 62.904335 18.807106 6.982460 -28.751894 20.292900 -15.260664 
56.371819 38.702511 11.768178 6.927116 3.509415 -171.692657 44.069023 8.067740 -11.223115 -20.839844 0.000000 0.000000 0.932877 -0.181057 5.662580 -2.520860 -1.255023 0.218345 -4.754609 -0.109182 -0.002653 -56.472466 15.376240 1.090110 -37.552883 -20.496387 8.190777 9.106401 28.917744 -22.328922 4.754609 0.109182 -0.002672 76.440796 -31.315891 -11.436762 70.467079 19.206005 11.544371 -11.745451 -44.801613 10.454321 -10.678877 4.871013 -2.132807 100.357872 5.164033 -1.196196 -5.076937 3.539857 -9.443510 -14.618685 -12.870357 -17.136688 62.863594 18.806669 6.943033 -28.959295 20.330915 -15.413992 
56.354050 38.695408 12.214925 7.082500 3.353183 -171.487488 44.268124 8.125617 -11.109690 -20.839844 0.000000 0.000000 0.662888 -0.242680 5.306250 -2.520860 -1.255023 0.218345 -4.754609 -0.109182 -0.002653 -56.606880 16.203194 1.198039 -37.627621 -20.868315 8.300861 8.770341 28.968481 -22.730156 4.754609 0.109182 -0.002672 77.394081 -32.049892 -12.318460 69.968147 18.532604 11.735283 -11.553177 -44.656208 10.713693 -11.081402 4.657085 -2.249607 100.744339 5.163666 -1.323316 -5.277693 3.354901 -9.586779 -14.968719 -13.102228 -17.201427 62.822544 18.806122 6.913194 -29.202518 20.360386 -15.624725 
56.333740 38.684750 12.719067 7.257380 3.187204 -171.254028 44.487946 8.188936 -10.989385 -20.839844 0.000000 0.000000 0.362624 -0.321628 4.902400 -2.520860 -1.255023 0.218345 -4.754609 -0.109182 -0.002653 -56.755123 17.136051 1.308208 -37.706104 -21.285946 8.427570 8.373809 29.019632 -23.170618 4.754609 0.109182 -0.002672 78.504295 -32.815731 -13.324075 69.340668 17.720440 11.961858 -11.312920 -44.447506 11.023472 -11.537953 4.402296 -2.342094 101.188370 5.183109 -1.465480 -5.484941 3.142446 -9.764403 -15.349549 -13.356102 -17.281548 62.734360 18.776690 6.849867 -29.465105 20.393362 -15.818495 
56.311401 38.669003 13.278019 7.451689 3.001823 -171.003571 44.728523 8.257521 -10.859279 -20.839844 0.000000 0.000000 0.022450 -0.398821 4.461595 -2.520860 -1.255023 0.218345 -4.754609 -0.109182 -0.002653 -56.906868 18.165699 1.418383 -37.764290 -21.724873 8.580208 7.930768 29.061762 -23.640408 4.754609 0.109182 -0.002672 79.796906 -33.586395 -14.491535 68.556160 16.746353 12.208190 -11.053049 -44.145435 11.398651 -12.037580 4.110297 -2.468003 101.672447 5.163383 -1.613365 -5.706396 2.897242 -9.957091 -15.779436 -13.659193 -17.353666 62.644344 18.759190 6.786666 -29.745846 20.472214 -16.095680 
56.287544 38.643627 13.890270 7.665437 2.797086 -170.717407 45.000732 8.337549 -10.713232 -20.839844 0.000000 0.000000 -0.338334 -0.493338 3.973824 -2.520860 -1.255023 0.218345 -4.754609 -0.109182 -0.002653 -57.059269 19.262745 1.544233 -37.810669 -22.197119 8.775473 7.432231 29.099192 -24.122873 4.754609 0.109182 -0.002672 81.258743 -34.310200 -15.790876 67.607170 15.589967 12.479836 -10.740465 -43.749691 11.839468 -12.592711 3.787505 -2.607221 102.224808 5.153826 -1.759024 -5.960094 2.630599 -10.171516 -16.288351 -14.032051 -17.452755 62.586540 18.720654 6.805871 -29.580303 20.408575 -15.976928 
56.261147 38.612652 14.549747 7.888925 2.582779 -170.413651 45.284641 8.419463 -10.549759 -20.839844 0.000000 0.000000 -0.739129 -0.605615 3.449914 -2.520860 -1.255023 0.218345 -4.754609 -0.109182 -0.002653 -57.217190 20.437071 1.657741 -37.825897 -22.688824 8.997576 6.902399 29.122885 -24.617620 4.754609 0.109182 -0.002672 82.890411 -34.972107 -17.232052 66.455750 14.234965 12.749316 -10.405963 -43.218273 12.375469 -13.197476 3.436216 -2.739347 102.805824 5.143723 -1.922485 -6.229968 2.361949 -10.399538 -16.922916 -14.559081 -17.556732 62.522411 18.640923 6.897961 -28.555462 20.151955 -15.157661 
56.232712 38.576611 15.253391 8.131824 2.339545 -170.095367 45.589874 8.516171 -10.379518 -20.839844 0.000000 0.000000 -1.160272 -0.726312 2.899474 -2.520860 -1.255023 0.218345 -4.754609 -0.109182 -0.002653 -57.358364 21.660652 1.779222 -37.806351 -23.196861 9.267934 6.312275 29.132790 -25.115093 4.754609 0.109182 -0.002672 84.664352 -35.512352 -18.789038 65.079590 12.687604 13.001167 -10.042191 -42.552055 12.986921 -13.824168 3.045966 -2.893353 103.435028 5.114617 -2.119242 -6.480660 2.074812 -10.657923 -17.567701 -15.106354 -17.652142 62.428223 18.553875 6.974391 -27.432760 19.879503 -14.282336 
56.202255 38.533962 15.996632 8.384507 2.086850 -169.760696 45.906300 8.617691 -10.200590 -20.839844 0.000000 0.000000 -1.611770 -0.854957 2.313601 -2.520860 -1.255023 0.218345 -4.754609 -0.109182 -0.002653 -57.492134 22.932789 1.901647 -37.762871 -23.717005 9.575489 5.701550 29.122578 -25.611422 4.754609 0.109182 -0.002672 86.551216 -35.891994 -20.429165 63.437630 10.942868 13.203383 -9.673350 -41.709068 13.697867 -14.494805 2.625791 -3.029082 104.103203 5.094519 -2.312696 -6.756537 1.767854 -10.970296 -18.237816 -15.686329 -17.744156 62.284733 18.447319 7.046055 -26.243780 19.608795 -13.348022 
